<svg xmlns="http://www.w3.org/2000/svg" viewBox="0 0 1119.47 1274.3"><defs><style>.cls-1{fill:#fdd506;}.cls-2{fill:#dc572e;}.cls-3{fill:#1a3764;}</style></defs><g id="Layer_2" data-name="Layer 2"><g id="Layer_1-2" data-name="Layer 1"><g id="Layer_3" data-name="Layer 3"><path class="cls-1" d="M639.7,1232.71c-9.93,8.24-35.47,13.25-40.8,13-48.42-2.35-95.58-10.89-137.47-36.66-29.92-18.36-58.45-39-87.4-58.89-5.71-3.92-14.62-7.65-13.38-15.42,1.5-9.25,12.1-8.9,19.36-11.58,19.67-7.21,38.46-29.8,42.68-39.32q17.54-39.4,35.29-78.74c5.33-11.86,11.19-18.49,25.16-8.28,41.82,30.45,89.14,50,138.11,65.28,17.91,5.56,26.26,14.35,26,33.9-.43,33.55,1.74,67.13,2.43,100.65C649.86,1205.92,639.14,1227.41,639.7,1232.71Z"/><path class="cls-1" d="M1044.1,1008.66c-22.83,49.86-53.27,94.47-92,133.24-17.37,17.5-21.71,16.67-32.84-4.47-17.42-33.21-34.57-66.63-50.36-97.22-5.31-13.33,1-19.54,8.33-24.9,31-22.56,54.07-51.88,71-85.94,8.26-16.51,16.41-16.1,28.75-4.33,20.16,19.38,40.87,38.08,62,56.42C1048.38,989.69,1049.31,997.35,1044.1,1008.66Z"/><path class="cls-1" d="M1069.55,687.08q-31.5-7.41-62.83-15.17c-11.11-2.74-14.07-11.78-16.51-21.36-5.27-20.12-10.77-40.11-13.48-50.22-9.77-45.3-21-79.45-35.59-112.22-7.3-16.32-2.48-23.6,13.1-28,14.59-4.05,29.08-8.54,43.36-13.51,8.16-2.78,14.18-1.41,17.78,6.53C1047.28,524,1073,596.68,1085,673.76,1086.92,686.4,1080.55,689.64,1069.55,687.08Z"/><path class="cls-1" d="M803.1,192.62c-8.09,17.4-15.73,35-23.05,52.79-4.74,11.31-10.69,12.17-20,4.91a529.4,529.4,0,0,0-128.66-73.81c-9.84-4-16.22-10.67-16.93-21.24-1.92-27.94-3.43-55.85-4.9-83.84-.28-5.51-.37-11.53,8.1-12.68,4.88,1.62,10.28,3.16,15.42,5.23C692.54,87.37,744.81,122.59,795,161.35,806.27,170,809.18,179.62,803.1,192.62Z"/><path class="cls-1" d="M384.47,187c-36.57,17.8-68.38,41.17-89,77.36-5.59,9.87-13.26,8.28-19.76,1.91-32.57-32.2-71.77-56.57-99-95.31-9.3-13.21-3.35-6.67-13.21-17.38,32.9-32,53.64-48.65,93.7-71.5,18-10.22,37.41-17.89,56.32-26.43C327.38,49.36,337.7,52.9,345,67c15.82,30.45,32.35,60.57,48.69,90.75C400.81,170.83,398.17,180.31,384.47,187Z"/><path class="cls-2" d="M1063.09,942c-7.2,15.23-12.31,18.73-25,6.32-17.74-17.3-35.76-34.4-54.54-50.63s-31.12-13.91-41,8.63c-17.5,39.79-42.4,73.07-77.46,99-15.44,11.32-19.81,25.46-9.48,43.89,17.21,30.67,32.06,62.71,49.63,93.23,11.51,20.1,7.58,32.19-13.11,41.54-42.88,19.29-167.58,58.63-187.61,59.82-25.85,1.49-29.24-2-29.33-28.29-.09-45.64-2-91.2-3.31-136.84-.48-18.15-9.49-28.89-27.41-34.51-56.68-17.75-112.05-38.52-157.8-78.68-12.63-11.16-24-6.79-30.92,7.64-13.19,27.34-25.92,55-38.57,82.62-11.58,25.17-36.23,53.2-53.24,58.9-16.4,5.53-29.3,4-44.6-5.91-92.71-60.32-150.46-148.64-199.77-244.15-6.89-13.3-4.07-22.84,9.63-29.24,16.41-7.73,65.35-34.63,79.16-40.14,23.81-9.38,47.27-19.53,70.79-29.71C307.25,753.3,310.47,743,300,715a981.8,981.8,0,0,1-49.16-182.82c-3.46-20.54-12.09-31.65-32.17-35.63-30.66-6-61-13.13-91.67-19.06-14.39-2.85-65,11.88-82.54,15.39-10.79,2.16-9.75-5.36-9.89-11.57-1.43-93.68,22.09-180.62,72.34-259.85,10.61-16.68,27.46-25.46,49.46-32.17C178.91,204,169.13,195,207.71,229c19.23,16.9,38.12,34.3,57.9,50.52,19.16,15.66,29.33,13.67,42.61-7.18,22.31-35,54.27-58,90.93-75.74,27-13,30.4-22.45,17.06-49.12-14.73-29.34-29.81-58.53-46-87-9.21-16.2-7-23.78,11.93-28.06,66.18-15,130.45-4.86,194.44,12.39,13.47,3.63,15.89,13.88,16.41,26,1.34,28.76,3.36,57.53,4.49,86.28.71,16.23,7.53,26.29,23.23,32.51,47.13,18.59,90.68,43.65,131.24,74.1,22.38,16.79,29.62,14.52,41.48-10.87,6.06-13.06,12.11-26.18,17.36-39.56,4.76-12,9.9-13.89,21.19-5.75,70.44,50.67,118.55,119.18,158.1,194.91,6.7,12.83,4.82,20.44-8.92,26.19-14.72,6.08-28.79,13.85-43.29,20.74-16.51,7.82-22.06,19.08-14,36.87,24.16,53.6,37.78,110.5,50.7,167.52,4.67,20.61,14.87,32.1,36,35.73,20.47,3.48,40.51,9.53,60.91,13.69,12.59,2.6,19.41,8.42,20,22.35C1094.85,799.34,1095.92,872.63,1063.09,942Z"/><path class="cls-1" d="M264.26,755.69c-28.36,11-56.12,23.45-83.67,36.23-12.94,6-34.27,19.9-61.9,32.11-19.3,8.58-20.16-7.75-24.32-17.06C57.42,723.09,41.72,634.45,37.76,543.45,37.09,528.08,72,495.58,86.2,497.6c7,1,25.26,1,62.91,8.77,75.2,15.43,76.79,15.14,88.44,89.72,6.95,44.93,22.9,86.51,38.11,128.56C281.54,740.82,281.46,749,264.26,755.69Z"/><path class="cls-3" d="M759.41,686.18c1.46,7,6.6,12.56,10.28,11.15a147.23,147.23,0,0,1,57.3-9.94c2.58.05,3.72-3.46,2.7-8.19-20.47-94.67-59.7-167.15-91.76-215.31L735,566a25.83,25.83,0,0,0,.59,6Z"/><path class="cls-1" d="M620.14,862c5.05,4.22,10.94,2.68,13.6-3.53,18-41.71,37.39-74.82,57.91-100.28,3.65-4.59,2.1-14.49-3.09-19.85l-96.4-99.91-43.57-45.18,50.5,11.54,67.34,15.39L674.5,622c6.49,1.47,11.79-1.39,14.34-7.62l3-7.45,21.32-52.39,5.6-118c-16.88-22.86-28.92-36.09-28.92-36.09l-60.1,8.19L654.08,549c1.34,7.72-4.7,10.14-10.19,3.93L528.12,422.53,423.21,436.84s-1.59,23,3.74,62.35c2,14.25,4.79,30.6,9,48.75C456.5,637.87,508.2,767.78,620.14,862Z"/><path class="cls-3" d="M1038.41,441.38C957.86,267.19,838.14,129.56,660.06,49.56,578,12.65,492.27-9.14,401.06,3.72,367.7,8.42,336,18.8,305,31.5,208.22,75,139.11,130.5,91.38,193.1c-2,2.59-3.87,5.16-5.77,7.73,0,.06,0,.08-.09.16-5.25,7.19-10.24,14.58-15,22A431.41,431.41,0,0,0,20.63,333.14c-22,74.39-24.87,152.92-15.8,229.79a31.3,31.3,0,0,1,2.46,8.91c2.34,16.16,3.9,26.16,3.6,32.93Q15,628.11,20.17,651c3.22,11.24,5.55,19.92,6.64,26.94,21.75,83.69,54,161.33,85.76,224.31a32.41,32.41,0,0,1,3.48,6.78c21.57,42.2,42.88,77.49,60.26,103.07,4.07,2.29,8,6.08,12.3,11.65,9,11.68,18.29,23.07,27.89,34.06,65,74.88,143.14,134.25,234,175.67,127,58,256.88,49.87,385.81,2.75,58.59-21.45,112.83-49.91,154-98.4,75.51-88.88,116.81-192.23,126.81-308C1128.92,692.8,1095.31,564.43,1038.41,441.38Zm-23,11.77C1047.28,524,1073,596.68,1085,673.76c1.93,12.64-4.44,15.88-15.44,13.32q-31.5-7.41-62.83-15.17c-11.11-2.74-14.07-11.78-16.51-21.36-5.27-20.12-10.77-40.11-13.48-50.22-9.77-45.3-21-79.45-35.59-112.22-7.3-16.32-2.48-23.6,13.1-28,14.59-4.05,29.08-8.54,43.36-13.51,8.16-2.76,14.18-1.39,17.78,6.55ZM617.66,58.75c4.88,1.62,10.28,3.16,15.42,5.23C692.54,87.37,744.81,122.59,795,161.35c11.24,8.68,14.15,18.27,8.07,31.27-8.09,17.4-15.73,35-23,52.79-4.74,11.31-10.69,12.17-20,4.91a529.48,529.48,0,0,0-128.62-73.81c-9.84-4-16.22-10.67-16.93-21.24-1.92-27.94-3.43-55.85-4.9-83.84C609.28,65.92,609.19,59.9,617.66,58.75ZM257.12,82.06c18-10.22,37.41-17.89,56.32-26.43C327.38,49.36,337.7,52.9,345,67c15.82,30.45,32.35,60.57,48.69,90.75,7.1,13.05,4.46,22.53-9.24,29.2-36.57,17.8-68.38,41.17-89,77.36-5.59,9.87-13.26,8.28-19.76,1.91-32.57-32.2-71.77-56.57-99-95.31-9.3-13.21-3.35-6.67-13.21-17.38C196.32,121.59,217.06,104.91,257.12,82.06ZM94.37,807C57.42,723.09,41.72,634.45,37.76,543.45,37.09,528.08,72,495.58,86.2,497.6c7,1,25.26,1,62.91,8.77,75.2,15.43,76.79,15.14,88.44,89.72,6.95,44.93,22.9,86.51,38.11,128.56,5.88,16.17,5.8,24.3-11.4,31-28.36,11-56.12,23.45-83.67,36.23-12.94,6-34.27,19.9-61.9,32.11C99.39,832.61,98.53,816.28,94.37,807ZM639.7,1232.74c-9.93,8.24-35.47,13.25-40.8,13-48.42-2.35-95.58-10.89-137.47-36.66-29.92-18.36-58.45-39-87.4-58.89-5.71-3.92-14.62-7.65-13.38-15.42,1.5-9.25,12.1-8.9,19.36-11.58,19.67-7.21,38.46-29.8,42.68-39.32q17.54-39.4,35.29-78.74c5.33-11.86,11.19-18.49,25.16-8.28,41.82,30.45,89.14,50,138.11,65.28,17.91,5.56,26.26,14.35,26,33.9-.43,33.55,1.74,67.13,2.43,100.65.18,9.24-10.54,30.73-10,36Zm404.4-224c-22.83,49.86-53.27,94.47-92,133.24-17.37,17.5-21.71,16.67-32.84-4.47-17.42-33.21-34.57-66.63-50.36-97.22-5.31-13.33,1-19.54,8.33-24.9,31-22.56,54.07-51.88,71-85.94,8.26-16.51,16.41-16.1,28.75-4.33,20.16,19.38,40.87,38.08,62,56.42,9.4,8.2,10.33,15.86,5.12,27.17Zm19-66.66c-7.2,15.23-12.31,18.73-25,6.32-17.74-17.3-35.76-34.4-54.54-50.63s-31.12-13.91-41,8.63c-17.5,39.79-42.4,73.07-77.46,99-15.44,11.32-19.81,25.46-9.48,43.89,17.21,30.67,32.06,62.71,49.63,93.23,11.51,20.1,7.58,32.19-13.11,41.54-42.88,19.29-167.58,58.63-187.61,59.82-25.85,1.49-29.24-2-29.33-28.29-.09-45.64-2-91.2-3.31-136.84-.48-18.15-9.49-28.89-27.41-34.51-56.68-17.75-112-38.52-157.8-78.68-12.63-11.16-24-6.79-30.92,7.64-13.19,27.34-25.92,55-38.57,82.62C405.61,1081,381,1109,364,1114.72c-16.4,5.53-29.3,4-44.6-5.91-92.71-60.32-150.46-148.64-199.77-244.15-6.89-13.3-4.07-22.84,9.63-29.24,16.41-7.73,65.35-34.63,79.16-40.14,23.81-9.38,47.27-19.53,70.79-29.71,28.1-12.19,31.32-22.5,20.82-50.46a981.8,981.8,0,0,1-49.16-182.82c-3.46-20.54-12.09-31.65-32.17-35.63-30.66-6-61-13.13-91.67-19.06-14.39-2.85-65,11.88-82.54,15.39-10.79,2.16-9.75-5.36-9.89-11.57-1.43-93.68,22.09-180.62,72.34-259.85,10.61-16.68,27.46-25.46,49.46-32.17,22.56,14.6,12.78,5.6,51.36,39.6,19.23,16.9,38.12,34.3,57.9,50.52,19.16,15.66,29.33,13.67,42.61-7.18,22.31-35,54.27-58,90.93-75.74,27-13,30.4-22.45,17.06-49.12-14.73-29.34-29.81-58.53-46-87-9.21-16.2-7-23.78,11.93-28.06,66.18-15,130.45-4.86,194.44,12.39,13.47,3.63,15.89,13.88,16.41,26,1.34,28.76,3.36,57.53,4.49,86.28.71,16.23,7.53,26.29,23.23,32.51,47.13,18.59,90.68,43.65,131.24,74.1,22.38,16.79,29.62,14.52,41.48-10.87,6.06-13.06,12.11-26.18,17.36-39.56,4.76-12,9.9-13.89,21.19-5.75,70.44,50.67,118.55,119.18,158.1,194.91,6.7,12.83,4.82,20.44-8.92,26.19-14.72,6.08-28.79,13.85-43.29,20.74-16.51,7.82-22.06,19.08-14,36.87,24.16,53.6,37.78,110.5,50.7,167.52,4.67,20.61,14.87,32.1,36,35.73,20.47,3.48,40.51,9.53,60.91,13.69,12.59,2.6,19.41,8.42,20,22.35,3.37,73.82,4.44,147.11-28.39,216.48Z"/><path class="cls-1" d="M891,465.68a613.77,613.77,0,0,1,27.36,65.43q5.88,16.74,10.77,33.85t8.64,34.5a523.46,523.46,0,0,1,10.51,70.48,467.59,467.59,0,0,1,.3,71.6,392.57,392.57,0,0,1-11.74,71.17,317.19,317.19,0,0,1-26.33,68A253.9,253.9,0,0,1,867,940.55a222.11,222.11,0,0,1-132.48,64.94,244.64,244.64,0,0,1-37.3,1.64,273,273,0,0,1-36.88-3.76,319.09,319.09,0,0,1-70.23-20.79,396.07,396.07,0,0,1-63.83-34.32c-40.22-26.56-75.75-59.38-106.31-96A588.56,588.56,0,0,1,343,732.4a617.56,617.56,0,0,1-27.14-65.91,561.53,561.53,0,0,1-18.91-68.83c-9.66-46.64-13.25-94.77-9.06-142.6a395,395,0,0,1,12.7-71,318.16,318.16,0,0,1,27-67.53,270.51,270.51,0,0,1,19.7-31,243.53,243.53,0,0,1,24.12-28,220.47,220.47,0,0,1,131.37-63.46,242.61,242.61,0,0,1,36.85-1.44,269.44,269.44,0,0,1,36.4,3.89,316,316,0,0,1,69.38,20.86,392.7,392.7,0,0,1,63.15,34.16,466.21,466.21,0,0,1,56.28,43.91A519.72,519.72,0,0,1,814,346.79,588,588,0,0,1,891,465.68ZM858.67,481.4a573.3,573.3,0,0,0-32.46-58.32q-9-14.07-18.69-27.63t-20.35-26.39C759,334.74,726.43,304,690,279.26a356,356,0,0,0-57.52-31.83,278.86,278.86,0,0,0-62.1-19.06,218,218,0,0,0-63.89-2.24,184.06,184.06,0,0,0-111.56,54.78C380,296,367.72,313.7,357.77,332.71a249.92,249.92,0,0,0-13.06,29.53,299.58,299.58,0,0,0-9.61,31.05,355.62,355.62,0,0,0-9.82,64.65,433.32,433.32,0,0,0,1.09,65.84q1.49,16.44,4.1,32.79c1.75,10.89,3.89,21.72,6.3,32.49s5.19,21.48,8.28,32.09,6.57,21.11,10.25,31.54a588.77,588.77,0,0,0,58.3,119c6,9.29,12.16,18.45,18.64,27.39s13.26,17.65,20.29,26.14a490,490,0,0,0,45.19,48.07,434.6,434.6,0,0,0,51.24,41A355.76,355.76,0,0,0,605.78,946,277.41,277.41,0,0,0,667,965.13a215.42,215.42,0,0,0,63,2.57,182.47,182.47,0,0,0,110.45-53.34,217.26,217.26,0,0,0,37.39-51,278.5,278.5,0,0,0,23.38-60.07A356.1,356.1,0,0,0,912,738.77a431.49,431.49,0,0,0-.11-66,487.5,487.5,0,0,0-9.62-65.65q-3.5-16.26-8-32.32t-10-31.78A575.32,575.32,0,0,0,858.67,481.4Z"/></g></g></g></svg>