<svg id="Layer_1" data-name="Layer 1" xmlns="http://www.w3.org/2000/svg" viewBox="0 0 4718.06 1274.3"><defs><style>.cls-1{fill:#fff;}.cls-2{fill:#fdd506;}.cls-3{fill:#dc572e;}.cls-4{fill:#1a3764;}</style></defs><g id="Layer_1-2" data-name="Layer 1-2"><path class="cls-1" d="M1760.55,724.78V116.63h.82l309,439.4-33.43-7.34,309-432.06h.81V724.78h-79.07V296l5.7,39.94-221.8,314.65H2050L1824.14,335.92l13-36.68V724.78Z" transform="translate(-0.01 0)"/><path class="cls-1" d="M2637.7,732.93q-47.29,0-86-20.38t-61.54-59.92q-22.85-39.52-22.83-96.6T2491,458.2q23.64-40.74,63.59-62.77t87.22-22q47.28,0,80.3,21.61t49.32,51l-4.89,12.22,7.34-70.92H2844v337.5h-75.81v-88l9,19.57q-4.1,8.16-15.49,20.79a198.91,198.91,0,0,1-28.94,25.68,159.1,159.1,0,0,1-41.17,21.6Q2667.93,733,2637.7,732.93Zm20.38-62.77q28.53,0,51.36-10.6a100.65,100.65,0,0,0,37.9-30.16q15.07-19.57,20.79-45.65v-66A103.75,103.75,0,0,0,2745.3,475a114.11,114.11,0,0,0-39.12-28.54,120.89,120.89,0,0,0-49.73-10.19q-31,0-56.25,14.68a109.52,109.52,0,0,0-40.35,40.76q-15.1,26.1-15.08,61.14,0,32.61,15.48,59.51a115.09,115.09,0,0,0,41.58,42.39,108.19,108.19,0,0,0,56.25,15.45Z" transform="translate(-0.01 0)"/><path class="cls-1" d="M2979.27,887.82l-44.84-47.29A137.19,137.19,0,0,0,2970.3,792q13-28.95,13-68.07V387.28H3060V727.22q0,57.06-19.15,96.6T2979.27,887.82ZM2976.82,265q0-17.92,14.27-30.16t31.38-12.23q17.13,0,31,12.23T3067.31,265q0,18.76-13.86,30.57t-31,11.82q-17.11,0-31.38-11.82T2976.82,265Z" transform="translate(-0.01 0)"/><path class="cls-1" d="M3342.84,732.93q-57.9,0-99.46-23.23T3179,646.11q-22.83-40.35-22.82-92.53,0-49.71,25.67-90.48a193.39,193.39,0,0,1,68.07-65.22q42.39-24.45,94.57-24.46,66.83,0,110.87,39.13t60.32,107.61L3236.86,618l-17.93-44.83,227.44-84-15.49,11.42q-9.78-26.91-32.61-46.47t-59.51-19.57q-31,0-55,14.68a104.09,104.09,0,0,0-37.91,40.35Q3232,515.28,3232,549.51t14.27,61.14a104.25,104.25,0,0,0,39.94,42q25.68,15.09,58.29,15.08a116.13,116.13,0,0,0,42.8-8.15,191.82,191.82,0,0,0,39.53-21.19L3461,694.61a233.59,233.59,0,0,1-56.65,27.72Q3373,732.92,3342.84,732.93Z" transform="translate(-0.01 0)"/><path class="cls-1" d="M3704.78,731.3a197.54,197.54,0,0,1-69.7-12.64q-33.84-12.63-55.84-37.9l31.79-44q22,20.4,44,30.57t44,10.19a106.84,106.84,0,0,0,30.17-4.07,46.33,46.33,0,0,0,22.41-13.86q8.57-9.78,8.56-25.27,0-18.75-11.82-28.94t-29.75-16.71q-17.94-6.52-39.13-12.23-41.58-13.86-63.59-38.32t-22-59.51a98.45,98.45,0,0,1,13.45-50.13q13.46-23.24,40.36-38.31t65.21-15.09q35,0,62.77,8.56t52.17,28.94l-30.16,47.29A94.11,94.11,0,0,0,3763,436.63q-20-7.74-36.28-7.74a81.35,81.35,0,0,0-27.31,4.48q-12.64,4.49-20.38,13T3671.36,468q-.83,17.12,11,27.31T3712.12,512q17.91,6.53,36.68,13a179.94,179.94,0,0,1,44,19.57,101.2,101.2,0,0,1,31.39,30.16q11.8,17.94,11.82,44.84a113.27,113.27,0,0,1-14.27,55.84q-14.26,25.68-43.2,40.76T3704.78,731.3Z" transform="translate(-0.01 0)"/><path class="cls-1" d="M3973.79,238.91h77.45v150h92.12v59.51h-92.12V724.78h-77.45V448.42h-61.14V388.91h61.14Z" transform="translate(-0.01 0)"/><path class="cls-1" d="M4229,265q0-17.92,14.26-30.16t31.39-12.23q17.12,0,31,12.23T4319.44,265q0,18.76-13.86,30.57t-31,11.82q-17.11,0-31.39-11.82T4229,265Zm4.89,122.28h76.63v337.5h-76.63Z" transform="translate(-0.01 0)"/><path class="cls-1" d="M4715.62,693q-22.83,18.76-54.62,29.35a199.85,199.85,0,0,1-63.58,10.6q-54.63,0-96.6-22t-65.63-62q-23.65-39.93-23.64-93.75t25.27-93.34q25.26-39.53,65.63-61.14t87.63-21.6q39.93,0,72.15,11t55.84,31.38l-38.32,48.91q-13.86-10.57-35.46-20T4596.6,441a104.09,104.09,0,0,0-55,15.08,108.21,108.21,0,0,0-39.13,40.76q-14.28,25.68-14.27,58.28,0,31.8,14.67,57.88a110.66,110.66,0,0,0,40.76,41.58q26.09,15.5,60.33,15.49a116.67,116.67,0,0,0,72.55-24.46Z" transform="translate(-0.01 0)"/><path class="cls-1" d="M2772.07,1134l82.85-198h1.58l83.11,198h-29.19l-62.08-158.08L2866.49,964l-69.17,170Zm48.66-72.07h70.75l8.42,22.1h-86.54Z" transform="translate(-0.01 0)"/><path class="cls-1" d="M2991.16,1025.06l2.37,31.56-1.05-4.47a48,48,0,0,1,12.1-16.83,58.29,58.29,0,0,1,16.83-10.79q8.94-3.67,15.26-3.94l-1.06,24.72q-12.62-1.05-22,4.61a42.23,42.23,0,0,0-14.73,14.73,37.65,37.65,0,0,0-5.39,19.59V1134H2969V1025.06Z" transform="translate(-0.01 0)"/><path class="cls-1" d="M3151.87,1123.69a54.37,54.37,0,0,1-17.62,9.47,64.52,64.52,0,0,1-20.52,3.42q-17.62,0-31.17-7.1a52.27,52.27,0,0,1-21.17-20q-7.63-12.88-7.63-30.25t8.16-30.11a56.35,56.35,0,0,1,21.17-19.73,59,59,0,0,1,28.28-7,71.54,71.54,0,0,1,23.27,3.55,54.15,54.15,0,0,1,18,10.13l-12.36,15.78a55.05,55.05,0,0,0-11.44-6.45,38.36,38.36,0,0,0-15.39-3,33.66,33.66,0,0,0-17.76,4.86,35,35,0,0,0-12.62,13.16,37.93,37.93,0,0,0-4.6,18.8,37.45,37.45,0,0,0,4.73,18.68,35.78,35.78,0,0,0,13.15,13.41,39.42,39.42,0,0,0,42.88-2.89Z" transform="translate(-0.01 0)"/><path class="cls-1" d="M3228.67,1136.58a58.72,58.72,0,0,1-27.75-6.57,48.92,48.92,0,0,1-19.86-19.34q-7.36-12.75-7.36-31.16t7.63-31.57a52.87,52.87,0,0,1,20.51-20.25,57.44,57.44,0,0,1,28.15-7.1q15.24,0,25.91,7t15.91,16.44l-1.58,3.94,2.37-22.88h22.62V1134h-24.46v-28.4l2.89,6.31a33.48,33.48,0,0,1-5,6.71,64.42,64.42,0,0,1-9.34,8.28,50.25,50.25,0,0,1-30.64,9.73Zm6.58-20.25a38.93,38.93,0,0,0,16.57-3.42,32.44,32.44,0,0,0,12.23-9.73,36.59,36.59,0,0,0,6.71-14.73v-21.31a33.54,33.54,0,0,0-7.37-13.81,36.84,36.84,0,0,0-12.62-9.2,39.07,39.07,0,0,0-16.05-3.29,35.24,35.24,0,0,0-31.17,17.89,38.8,38.8,0,0,0-4.86,19.72,37.83,37.83,0,0,0,5,19.21,37.2,37.2,0,0,0,13.42,13.67A35,35,0,0,0,3235.25,1116.33Z" transform="translate(-0.01 0)"/><path class="cls-1" d="M3381.75,1136.58a51.37,51.37,0,0,1-46.68-27.75q-7.25-13.27-7.24-30.64,0-18.15,7.63-31a51.5,51.5,0,0,1,20.52-19.72,60.78,60.78,0,0,1,28.93-6.84,57,57,0,0,1,24.59,5.52,44.25,44.25,0,0,1,18.28,15.26l-1.31,8.68V930.37h24.46V1134h-24.46v-27.09l2.89,6.84a62.05,62.05,0,0,1-20.12,16.44A58.21,58.21,0,0,1,3381.75,1136.58Zm7.63-20.78a38.55,38.55,0,0,0,17.23-3.68,37.82,37.82,0,0,0,12.62-9.86,36.39,36.39,0,0,0,7.24-14.6v-20.78a34,34,0,0,0-7.5-13.94,37.05,37.05,0,0,0-12.89-9.34,41.3,41.3,0,0,0-16.7-3.28,36.3,36.3,0,0,0-18.15,4.73,35.78,35.78,0,0,0-13.41,13.15,40.12,40.12,0,0,0,0,38.8,38.51,38.51,0,0,0,13.41,13.67,34.32,34.32,0,0,0,18.15,5.13Z" transform="translate(-0.01 0)"/><path class="cls-1" d="M3544,1136.58q-18.67,0-32.08-7.49a53,53,0,0,1-20.78-20.52q-7.38-13-7.37-29.85a53.57,53.57,0,0,1,8.29-29.2,62.34,62.34,0,0,1,22-21,60,60,0,0,1,30.51-7.89q21.57,0,35.77,12.62T3599.8,1068l-90,31.57-5.79-14.47,73.39-27.09-5,3.68a35.4,35.4,0,0,0-10.52-15q-7.36-6.32-19.2-6.31a33.31,33.31,0,0,0-17.76,4.73,33.73,33.73,0,0,0-12.23,13,40.08,40.08,0,0,0-4.47,19.33,41.36,41.36,0,0,0,4.61,19.73,33.64,33.64,0,0,0,12.88,13.54,36.37,36.37,0,0,0,18.81,4.87,37.53,37.53,0,0,0,13.81-2.63,61.69,61.69,0,0,0,12.76-6.84l11,18.15a75.07,75.07,0,0,1-18.28,8.94A61.9,61.9,0,0,1,3544,1136.58Z" transform="translate(-0.01 0)"/><line class="cls-1" x1="3697.68" y1="1067.87" x2="4602.38" y2="1067.87"/><path class="cls-1" d="M3697.69,1067.87l28.27-.43,28.28-.32,56.54-.64,113.09-.78c37.69-.32,75.39-.35,113.08-.51L4150,1065l113.09.15c37.69.16,75.39.21,113.08.47s75.39.5,113.09.83l56.54.63,28.28.33,28.27.43-28.27.42-28.28.33-56.54.64q-56.55.49-113.09.82c-37.69.26-75.39.31-113.08.47l-113.09.15-113.09-.16c-37.69-.16-75.39-.19-113.08-.5l-113.09-.79-56.54-.64-28.28-.32Z" transform="translate(-0.01 0)"/><line class="cls-1" x1="1754.91" y1="1067.87" x2="2659.6" y2="1067.87"/><path class="cls-1" d="M1754.92,1067.87l28.27-.43,28.27-.32,56.55-.64,113.08-.78c37.7-.32,75.39-.35,113.09-.51l113.09-.16,113.08.15c37.7.16,75.39.21,113.09.47s75.39.5,113.09.83l56.54.63,28.27.33,28.27.43-28.27.42-28.27.33-56.54.64q-56.55.49-113.09.82c-37.7.26-75.39.31-113.09.47l-113.08.15-113.09-.16c-37.7-.16-75.39-.19-113.09-.5l-113.08-.79-56.55-.64-28.27-.32Z" transform="translate(-0.01 0)"/></g><g id="Layer_3" data-name="Layer 3"><path class="cls-2" d="M639.71,1232.71c-9.93,8.24-35.47,13.25-40.8,13-48.42-2.35-95.58-10.89-137.47-36.66-29.92-18.36-58.45-39-87.4-58.89-5.71-3.92-14.62-7.65-13.38-15.42,1.5-9.25,12.1-8.9,19.36-11.58,19.67-7.21,38.46-29.8,42.68-39.32q17.54-39.4,35.29-78.74c5.33-11.86,11.19-18.49,25.16-8.28,41.82,30.45,89.14,50,138.11,65.28,17.91,5.56,26.26,14.35,26,33.9-.43,33.55,1.74,67.13,2.43,100.65C649.87,1205.92,639.15,1227.41,639.71,1232.71Z" transform="translate(-0.01 0)"/><path class="cls-2" d="M1044.11,1008.66c-22.83,49.86-53.27,94.47-92,133.24-17.37,17.5-21.71,16.67-32.84-4.47-17.42-33.21-34.57-66.63-50.36-97.22-5.31-13.33,1-19.54,8.33-24.9,31-22.56,54.07-51.88,71-85.94,8.26-16.51,16.41-16.1,28.75-4.33,20.16,19.38,40.87,38.08,62,56.42C1048.39,989.69,1049.32,997.35,1044.11,1008.66Z" transform="translate(-0.01 0)"/><path class="cls-2" d="M1069.56,687.08q-31.5-7.4-62.83-15.17c-11.11-2.74-14.07-11.78-16.51-21.36-5.27-20.12-10.77-40.11-13.48-50.22-9.77-45.3-21-79.45-35.59-112.22-7.3-16.32-2.48-23.6,13.1-28,14.59-4.05,29.08-8.54,43.36-13.51,8.16-2.78,14.18-1.41,17.78,6.53C1047.29,524,1073,596.68,1085,673.76,1086.93,686.4,1080.56,689.64,1069.56,687.08Z" transform="translate(-0.01 0)"/><path class="cls-2" d="M803.11,192.62c-8.09,17.4-15.73,35-23.05,52.79-4.74,11.31-10.69,12.17-20,4.91A529.86,529.86,0,0,0,631.4,176.51c-9.84-4-16.22-10.67-16.93-21.24-1.92-27.94-3.43-55.85-4.9-83.84-.28-5.51-.37-11.53,8.1-12.68,4.88,1.62,10.28,3.16,15.42,5.23C692.55,87.37,744.82,122.59,795,161.35,806.28,170,809.19,179.62,803.11,192.62Z" transform="translate(-0.01 0)"/><path class="cls-2" d="M384.48,187c-36.57,17.8-68.38,41.17-89,77.36-5.59,9.87-13.26,8.28-19.76,1.91-32.57-32.2-71.77-56.57-99-95.31-9.3-13.21-3.35-6.67-13.21-17.38,32.9-32,53.64-48.65,93.7-71.5,18-10.22,37.41-17.89,56.32-26.43C327.39,49.36,337.71,52.9,345,67c15.82,30.45,32.35,60.57,48.69,90.75C400.82,170.83,398.18,180.31,384.48,187Z" transform="translate(-0.01 0)"/><path class="cls-3" d="M1063.1,942c-7.2,15.23-12.31,18.73-25,6.32-17.74-17.3-35.76-34.4-54.54-50.63s-31.12-13.91-41,8.63c-17.5,39.79-42.4,73.07-77.46,99-15.44,11.32-19.81,25.46-9.48,43.89,17.21,30.67,32.06,62.71,49.63,93.23,11.51,20.1,7.58,32.19-13.11,41.54-42.88,19.29-167.58,58.63-187.61,59.82-25.85,1.49-29.24-2-29.33-28.29-.09-45.64-2-91.2-3.31-136.84-.48-18.15-9.49-28.89-27.41-34.51-56.68-17.75-112.05-38.52-157.8-78.68-12.63-11.16-24-6.79-30.92,7.64-13.19,27.34-25.92,55-38.57,82.62-11.58,25.17-36.23,53.2-53.24,58.9-16.4,5.53-29.3,4-44.6-5.91-92.71-60.32-150.46-148.64-199.77-244.15-6.89-13.3-4.07-22.84,9.63-29.24,16.41-7.73,65.35-34.63,79.16-40.14,23.81-9.38,47.27-19.53,70.79-29.71C307.26,753.3,310.48,743,300,715a981.59,981.59,0,0,1-49.16-182.82c-3.46-20.54-12.09-31.65-32.17-35.63-30.66-6-61-13.13-91.67-19.06-14.39-2.85-65,11.88-82.54,15.39-10.79,2.16-9.75-5.36-9.89-11.57-1.43-93.68,22.09-180.62,72.34-259.85,10.61-16.68,27.46-25.46,49.46-32.17C178.92,204,169.14,195,207.72,229c19.23,16.9,38.12,34.3,57.9,50.52,19.16,15.66,29.33,13.67,42.61-7.18,22.31-35,54.27-58,90.93-75.74,26.95-13,30.4-22.45,17.06-49.12-14.73-29.34-29.81-58.53-46-87-9.21-16.2-7-23.78,11.93-28.06,66.18-15,130.45-4.86,194.44,12.39,13.47,3.63,15.89,13.88,16.41,26,1.34,28.76,3.36,57.53,4.49,86.28.71,16.23,7.53,26.29,23.23,32.51,47.13,18.59,90.68,43.65,131.24,74.1,22.38,16.79,29.62,14.52,41.48-10.87,6.06-13.06,12.11-26.18,17.36-39.56,4.76-12,9.9-13.89,21.19-5.75,70.44,50.67,118.55,119.18,158.1,194.91,6.7,12.83,4.82,20.44-8.92,26.19-14.72,6.08-28.79,13.85-43.29,20.74-16.51,7.82-22.06,19.08-14,36.87,24.16,53.6,37.78,110.5,50.7,167.52,4.67,20.61,14.87,32.1,36,35.73,20.47,3.48,40.51,9.53,60.91,13.69,12.59,2.6,19.41,8.42,20,22.35C1094.86,799.34,1095.93,872.63,1063.1,942Z" transform="translate(-0.01 0)"/><path class="cls-2" d="M264.27,755.69c-28.36,11-56.12,23.45-83.67,36.23-12.94,6-34.27,19.9-61.9,32.11-19.3,8.58-20.16-7.75-24.32-17.06C57.43,723.09,41.73,634.45,37.77,543.45,37.1,528.08,72,495.58,86.21,497.6c7,1,25.26,1,62.91,8.77,75.2,15.43,76.79,15.14,88.44,89.72,6.95,44.93,22.9,86.51,38.11,128.56C281.55,740.82,281.47,749,264.27,755.69Z" transform="translate(-0.01 0)"/><path class="cls-4" d="M759.42,686.18c1.46,7,6.6,12.56,10.28,11.15a147.23,147.23,0,0,1,57.3-9.94c2.58.05,3.72-3.46,2.7-8.19-20.47-94.67-59.7-167.15-91.76-215.31L735,566a26.27,26.27,0,0,0,.59,6Z" transform="translate(-0.01 0)"/><path class="cls-2" d="M620.15,862c5.05,4.22,10.94,2.68,13.6-3.53,18-41.71,37.39-74.82,57.91-100.28,3.65-4.59,2.1-14.49-3.09-19.85l-96.4-99.91L548.6,593.25l50.5,11.54,67.34,15.39,8.07,1.84c6.49,1.47,11.79-1.39,14.34-7.62l3-7.45,21.32-52.39,5.6-118c-16.88-22.86-28.92-36.09-28.92-36.09l-60.1,8.19L654.09,549c1.34,7.72-4.7,10.14-10.19,3.93L528.13,422.53,423.22,436.84s-1.59,23,3.74,62.35c2,14.25,4.79,30.6,9,48.75C456.51,637.87,508.21,767.78,620.15,862Z" transform="translate(-0.01 0)"/><path class="cls-4" d="M1038.42,441.38C957.87,267.19,838.15,129.56,660.07,49.56,578,12.65,492.28-9.14,401.07,3.72,367.71,8.42,336,18.8,305,31.5c-96.77,43.5-165.88,99-213.61,161.6-2,2.59-3.87,5.16-5.77,7.73,0,.06,0,.08-.09.16-5.25,7.19-10.24,14.58-15,22A431.41,431.41,0,0,0,20.64,333.14c-22,74.39-24.87,152.92-15.8,229.79a31.3,31.3,0,0,1,2.46,8.91C9.64,588,11.2,598,10.9,604.77Q15,628.11,20.18,651c3.22,11.24,5.55,19.92,6.64,26.94,21.75,83.69,54,161.33,85.76,224.31a32.66,32.66,0,0,1,3.48,6.78c21.57,42.2,42.88,77.49,60.26,103.07,4.07,2.29,8,6.08,12.3,11.65,9,11.68,18.29,23.07,27.89,34.06,65,74.88,143.14,134.25,234,175.67,127,58,256.88,49.87,385.81,2.75,58.59-21.45,112.83-49.91,154-98.4,75.51-88.88,116.81-192.23,126.81-308C1128.93,692.8,1095.32,564.43,1038.42,441.38Zm-23,11.77C1047.29,524,1073,596.68,1085,673.76c1.93,12.64-4.44,15.88-15.44,13.32q-31.5-7.4-62.83-15.17c-11.11-2.74-14.07-11.78-16.51-21.36-5.27-20.12-10.77-40.11-13.48-50.22-9.77-45.3-21-79.45-35.59-112.22-7.3-16.32-2.48-23.6,13.1-28,14.59-4.05,29.08-8.54,43.36-13.51,8.16-2.76,14.18-1.39,17.78,6.55ZM617.67,58.75c4.88,1.62,10.28,3.16,15.42,5.23C692.55,87.37,744.82,122.59,795,161.35c11.24,8.68,14.15,18.27,8.07,31.27-8.09,17.4-15.73,35-23.05,52.79-4.74,11.31-10.69,12.17-20,4.91A529.81,529.81,0,0,0,631.4,176.51c-9.84-4-16.22-10.67-16.93-21.24-1.92-27.94-3.43-55.85-4.9-83.84C609.29,65.92,609.2,59.9,617.67,58.75ZM257.13,82.06c18-10.22,37.41-17.89,56.32-26.43C327.39,49.36,337.71,52.9,345,67c15.82,30.45,32.35,60.57,48.69,90.75,7.1,13.05,4.46,22.53-9.24,29.2-36.57,17.8-68.38,41.17-89,77.36-5.59,9.87-13.26,8.28-19.76,1.91-32.57-32.2-71.77-56.57-99-95.31-9.3-13.21-3.35-6.67-13.21-17.38C196.33,121.59,217.07,104.91,257.13,82.06ZM94.38,807C57.43,723.09,41.73,634.45,37.77,543.45,37.1,528.08,72,495.58,86.21,497.6c7,1,25.26,1,62.91,8.77,75.2,15.43,76.79,15.14,88.44,89.72,6.95,44.93,22.9,86.51,38.11,128.56,5.88,16.17,5.8,24.3-11.4,31-28.36,11-56.12,23.45-83.67,36.23-12.94,6-34.27,19.9-61.9,32.11C99.4,832.61,98.54,816.28,94.38,807Zm545.33,425.74c-9.93,8.24-35.47,13.25-40.8,13-48.42-2.35-95.58-10.89-137.47-36.66-29.92-18.36-58.45-39-87.4-58.89-5.71-3.92-14.62-7.65-13.38-15.42,1.5-9.25,12.1-8.9,19.36-11.58,19.67-7.21,38.46-29.8,42.68-39.32q17.54-39.4,35.29-78.74c5.33-11.86,11.19-18.49,25.16-8.28,41.82,30.45,89.14,50,138.11,65.28,17.91,5.56,26.26,14.35,26,33.9-.43,33.55,1.74,67.13,2.43,100.65.18,9.24-10.54,30.73-10,36Zm404.4-224c-22.83,49.86-53.27,94.47-92,133.24-17.37,17.5-21.71,16.67-32.84-4.47-17.42-33.21-34.57-66.63-50.36-97.22-5.31-13.33,1-19.54,8.33-24.9,31-22.56,54.07-51.88,71-85.94,8.26-16.51,16.41-16.1,28.75-4.33,20.16,19.38,40.87,38.08,62,56.42,9.4,8.2,10.33,15.86,5.12,27.17Zm19-66.66c-7.2,15.23-12.31,18.73-25,6.32-17.74-17.3-35.76-34.4-54.54-50.63s-31.12-13.91-41,8.63c-17.5,39.79-42.4,73.07-77.46,99-15.44,11.32-19.81,25.46-9.48,43.89,17.21,30.67,32.06,62.71,49.63,93.23,11.51,20.1,7.58,32.19-13.11,41.54-42.88,19.29-167.58,58.63-187.61,59.82-25.85,1.49-29.24-2-29.33-28.29-.09-45.64-2-91.2-3.31-136.84-.48-18.15-9.49-28.89-27.41-34.51-56.68-17.75-112-38.52-157.8-78.68-12.63-11.16-24-6.79-30.92,7.64-13.19,27.34-25.92,55-38.57,82.62-11.58,25.17-36.23,53.2-53.24,58.9-16.4,5.53-29.3,4-44.6-5.91-92.71-60.32-150.46-148.64-199.77-244.15-6.89-13.3-4.07-22.84,9.63-29.24,16.41-7.73,65.35-34.63,79.16-40.14,23.81-9.38,47.27-19.53,70.79-29.71,28.1-12.19,31.32-22.5,20.82-50.46a981.59,981.59,0,0,1-49.16-182.82c-3.46-20.54-12.09-31.65-32.17-35.63-30.66-6-61-13.13-91.67-19.06-14.39-2.85-65,11.88-82.54,15.39-10.79,2.16-9.75-5.36-9.89-11.57-1.43-93.68,22.09-180.62,72.34-259.85,10.61-16.68,27.46-25.46,49.46-32.17C178.92,204,169.14,195,207.72,229c19.23,16.9,38.12,34.3,57.9,50.52,19.16,15.66,29.33,13.67,42.61-7.18,22.31-35,54.27-58,90.93-75.74,26.95-13,30.4-22.45,17.06-49.12-14.73-29.34-29.81-58.53-46-87-9.21-16.2-7-23.78,11.93-28.06,66.18-15,130.45-4.86,194.44,12.39,13.47,3.63,15.89,13.88,16.41,26,1.34,28.76,3.36,57.53,4.49,86.28.71,16.23,7.53,26.29,23.23,32.51,47.13,18.59,90.68,43.65,131.24,74.1,22.38,16.79,29.62,14.52,41.48-10.87,6.06-13.06,12.11-26.18,17.36-39.56,4.76-12,9.9-13.89,21.19-5.75,70.44,50.67,118.55,119.18,158.1,194.91,6.7,12.83,4.82,20.44-8.92,26.19-14.72,6.08-28.79,13.85-43.29,20.74-16.51,7.82-22.06,19.08-14,36.87,24.16,53.6,37.78,110.5,50.7,167.52,4.67,20.61,14.87,32.1,36,35.73,20.47,3.48,40.51,9.53,60.91,13.69,12.59,2.6,19.41,8.42,20,22.35,3.37,73.82,4.44,147.11-28.39,216.48Z" transform="translate(-0.01 0)"/><path class="cls-2" d="M891,465.68a613.77,613.77,0,0,1,27.36,65.43q5.88,16.75,10.77,33.85t8.64,34.5a523.94,523.94,0,0,1,10.51,70.48,467.59,467.59,0,0,1,.3,71.6,392.42,392.42,0,0,1-11.74,71.17,317.19,317.19,0,0,1-26.33,68A253.61,253.61,0,0,1,867,940.55a222.06,222.06,0,0,1-132.48,64.94,243.37,243.37,0,0,1-37.3,1.64,271.6,271.6,0,0,1-36.88-3.76,318.55,318.55,0,0,1-70.23-20.79,395.29,395.29,0,0,1-63.83-34.32c-40.22-26.56-75.75-59.38-106.31-96a588.28,588.28,0,0,1-77-119.86,616.7,616.7,0,0,1-27.14-65.91,561.53,561.53,0,0,1-18.91-68.83c-9.66-46.64-13.25-94.77-9.06-142.6a395.12,395.12,0,0,1,12.7-71,318.16,318.16,0,0,1,27-67.53,271.38,271.38,0,0,1,19.7-31,244.52,244.52,0,0,1,24.12-28,220.47,220.47,0,0,1,131.37-63.46,243.9,243.9,0,0,1,36.85-1.44A269.88,269.88,0,0,1,576,196.52a316,316,0,0,1,69.38,20.86,393.06,393.06,0,0,1,63.15,34.16,467.22,467.22,0,0,1,56.28,43.91A520.82,520.82,0,0,1,814,346.79,588,588,0,0,1,891,465.68ZM858.68,481.4a575.46,575.46,0,0,0-32.46-58.32q-9-14.07-18.69-27.63t-20.35-26.39C759,334.74,726.44,304,690,279.26a356.77,356.77,0,0,0-57.52-31.83,279.38,279.38,0,0,0-62.1-19.06,218.32,218.32,0,0,0-63.89-2.24,184.12,184.12,0,0,0-111.56,54.78C380,296,367.73,313.7,357.78,332.71a250.64,250.64,0,0,0-13.06,29.53,300.33,300.33,0,0,0-9.61,31.05,355.62,355.62,0,0,0-9.82,64.65,433.32,433.32,0,0,0,1.09,65.84q1.49,16.44,4.1,32.79c1.75,10.89,3.89,21.72,6.3,32.49s5.19,21.48,8.28,32.09,6.57,21.11,10.25,31.54a588.25,588.25,0,0,0,58.3,119c6,9.29,12.16,18.45,18.64,27.39s13.26,17.65,20.29,26.14a490,490,0,0,0,45.19,48.07,433.58,433.58,0,0,0,51.24,41A354.72,354.72,0,0,0,605.79,946a276.88,276.88,0,0,0,61.26,19.13,215.07,215.07,0,0,0,63,2.57A182.37,182.37,0,0,0,840.5,914.36a216.85,216.85,0,0,0,37.39-51,278,278,0,0,0,23.38-60.07A356,356,0,0,0,912,738.77a431.49,431.49,0,0,0-.11-66,487.73,487.73,0,0,0-9.62-65.65q-3.49-16.26-8-32.32t-10-31.78A576.18,576.18,0,0,0,858.68,481.4Z" transform="translate(-0.01 0)"/></g></svg>